# xmcd
#
# Track frame offsets: 
#        150
#        28657
#        51497
#        71445
#        92345
#        122422
#        147587
#        166072
#        186385
#        216562
#
# Disc length: 2987 seconds
#
# Revision: 3
# Processed by: cddbd v1.4PL0 Copyright (c) Steve Scherf et al.
# Submitted via: ExactAudioCopy v0.90b4
#
DISCID=920ba90a
DTITLE=Sally Oldfield - Three Rings
DYEAR=1994
DGENRE=Pop
TTITLE0=Three Rings
TTITLE1=Digging For Gold
TTITLE2=The Blessing
TTITLE3=Summer Of Love
TTITLE4=Healing Light
TTITLE5=Survival
TTITLE6=Summer In My Hand
TTITLE7=Sending Messages
TTITLE8=Twilight Zone
TTITLE9=Merlin's Song
EXTD=
EXTT0=
EXTT1=
EXTT2=
EXTT3=
EXTT4=
EXTT5=
EXTT6=
EXTT7=
EXTT8=
EXTT9=
PLAYORDER=
